<?xml version="1.0" encoding="UTF-8"?>
<svg id="_Шар_9" data-name="Шар 9" xmlns="http://www.w3.org/2000/svg" xmlns:xlink="http://www.w3.org/1999/xlink" viewBox="0 0 893.89 595.28">
  <defs>
    <style>
      .cls-1 {
        fill: url(#linear-gradient-2);
      }

      .cls-2 {
        fill: #fff;
      }

      .cls-3 {
        clip-path: url(#clippath-2);
      }

      .cls-4 {
        clip-path: url(#clippath-6);
      }

      .cls-5 {
        clip-path: url(#clippath-1);
      }

      .cls-6 {
        clip-path: url(#clippath-4);
      }

      .cls-7 {
        fill: #ff6414;
      }

      .cls-8 {
        fill: #182ba1;
      }

      .cls-9 {
        fill: url(#linear-gradient-5);
      }

      .cls-10 {
        clip-path: url(#clippath);
      }

      .cls-11 {
        fill: none;
      }

      .cls-12 {
        clip-path: url(#clippath-3);
      }

      .cls-13 {
        fill: url(#linear-gradient-3);
      }

      .cls-14 {
        clip-path: url(#clippath-5);
      }

      .cls-15 {
        fill: url(#linear-gradient);
      }

      .cls-16 {
        fill: url(#linear-gradient-4);
      }
    </style>
    <clipPath id="clippath">
      <rect class="cls-11" x="0" y="0" width="893.89" height="595.28"/>
    </clipPath>
    <linearGradient id="linear-gradient" x1="-122.61" y1="-3592.55" x2="27.99" y2="-3592.55" gradientTransform="translate(3661.91 23.34) rotate(-90)" gradientUnits="userSpaceOnUse">
      <stop offset="0" stop-color="#0056bb"/>
      <stop offset="1" stop-color="#00255c"/>
    </linearGradient>
    <linearGradient id="linear-gradient-2" x1="-941.13" y1="-861.79" x2="-790.53" y2="-861.79" gradientTransform="translate(1386.98 1233.63)" xlink:href="#linear-gradient"/>
    <clipPath id="clippath-1">
      <rect class="cls-11" x="-5.94" y="447.14" width="150.59" height="150.59"/>
    </clipPath>
    <clipPath id="clippath-2">
      <rect class="cls-11" x="445.85" y="145.95" width="150.6" height="150.59"/>
    </clipPath>
    <linearGradient id="linear-gradient-3" x1="-423.8" x2="-273.2" xlink:href="#linear-gradient"/>
    <clipPath id="clippath-3">
      <rect class="cls-11" x="-5.94" y="296.54" width="150.59" height="150.59"/>
    </clipPath>
    <linearGradient id="linear-gradient-4" x1="-717.05" y1="-1035.46" x2="-566.46" y2="-1035.46" gradientTransform="translate(1313.5 1106.11)" xlink:href="#linear-gradient"/>
    <clipPath id="clippath-4">
      <rect class="cls-11" x="596.44" y="-4.64" width="150.59" height="150.6"/>
    </clipPath>
    <linearGradient id="linear-gradient-5" x1="-574.39" y1="-3291.36" x2="-423.8" y2="-3291.36" xlink:href="#linear-gradient"/>
    <clipPath id="clippath-5">
      <rect class="cls-11" x="295.26" y="-4.65" width="150.59" height="150.59"/>
    </clipPath>
    <clipPath id="clippath-6">
      <rect class="cls-11" x="596.44" y="296.54" width="303.38" height="303.38"/>
    </clipPath>
  </defs>
  <g class="cls-10">
    <g>
      <g>
        <rect class="cls-15" x="-5.94" y="-4.65" width="150.59" height="150.59"/>
        <g>
          <g>
            <rect class="cls-8" x="-5.94" y="70.65" width="75.3" height="75.29"/>
            <polygon class="cls-2" points="69.36 145.95 -5.94 145.95 -5.94 70.65 69.36 145.95"/>
          </g>
          <g>
            <rect class="cls-8" x="-5.94" y="-4.65" width="75.3" height="75.3"/>
            <polygon class="cls-7" points="69.36 70.65 -5.94 70.65 -5.94 -4.65 69.36 70.65"/>
          </g>
        </g>
        <g>
          <rect class="cls-2" x="69.36" y="-4.65" width="75.3" height="75.3"/>
          <polygon class="cls-8" points="69.36 -4.65 144.66 -4.65 144.66 70.65 69.36 -4.65"/>
        </g>
        <g>
          <rect class="cls-7" x="69.36" y="70.65" width="75.3" height="75.29"/>
          <polygon class="cls-8" points="69.36 70.65 144.66 70.65 144.66 145.95 69.36 70.65"/>
        </g>
      </g>
      <g>
        <rect class="cls-1" x="445.85" y="296.54" width="150.6" height="150.59"/>
        <g>
          <g>
            <rect class="cls-8" x="445.85" y="296.54" width="75.3" height="75.3"/>
            <polygon class="cls-2" points="445.85 371.84 445.85 296.54 521.15 296.54 445.85 371.84"/>
          </g>
          <g>
            <rect class="cls-8" x="521.15" y="296.54" width="75.3" height="75.3"/>
            <polygon class="cls-7" points="521.15 371.84 521.15 296.54 596.44 296.54 521.15 371.84"/>
          </g>
        </g>
        <g>
          <rect class="cls-2" x="521.15" y="371.84" width="75.3" height="75.3"/>
          <polygon class="cls-8" points="596.44 371.84 596.44 447.14 521.15 447.14 596.44 371.84"/>
        </g>
        <g>
          <rect class="cls-7" x="445.85" y="371.84" width="75.3" height="75.3"/>
          <polygon class="cls-8" points="521.15 371.84 521.15 447.14 445.85 447.14 521.15 371.84"/>
        </g>
      </g>
      <g>
        <rect class="cls-8" x="295.26" y="145.95" width="150.59" height="150.6"/>
        <polygon class="cls-7" points="445.85 145.95 445.85 296.54 295.26 145.95 445.85 145.95"/>
        <path class="cls-2" d="M414.91,195.46v51.58c0,10.24-8.33,18.56-18.57,18.56h-51.57c-10.25,0-18.57-8.33-18.57-18.56v-51.58c0-10.24,8.32-18.57,18.57-18.57h51.57c10.24,0,18.57,8.33,18.57,18.57Zm-76.33,51.58c0,3.41,2.77,6.18,6.19,6.18h51.57c3.41,0,6.19-2.77,6.19-6.18v-51.58c0-3.41-2.78-6.19-6.19-6.19h-51.57c-3.42,0-6.19,2.77-6.19,6.19v51.58Z"/>
      </g>
      <g>
        <rect class="cls-7" x="747.04" y="145.95" width="150.6" height="150.59"/>
        <path class="cls-2" d="M866.69,195.46v51.58c0,10.23-8.33,18.56-18.57,18.56h-51.57c-10.25,0-18.57-8.33-18.57-18.56v-51.58c0-10.24,8.33-18.57,18.57-18.57h51.57c10.23,0,18.57,8.33,18.57,18.57Zm-76.33,51.58c0,3.41,2.77,6.19,6.19,6.19h51.57c3.41,0,6.19-2.77,6.19-6.19v-51.58c0-3.41-2.78-6.19-6.19-6.19h-51.57c-3.42,0-6.19,2.77-6.19,6.19v51.58Z"/>
      </g>
      <g>
        <rect class="cls-8" x="-5.94" y="447.14" width="150.59" height="150.59"/>
        <g class="cls-5">
          <g>
            <path class="cls-2" d="M71.35,522.43c0,42.61-34.67,77.28-77.28,77.28s-77.28-34.67-77.28-77.28S-48.55,445.15-5.94,445.15s77.28,34.67,77.28,77.28Zm-150.59,0c0,40.42,32.89,73.31,73.31,73.31s73.32-32.89,73.32-73.31S34.49,449.12-5.94,449.12s-73.31,32.88-73.31,73.31Z"/>
            <path class="cls-2" d="M40.63,522.43c0,25.67-20.89,46.56-46.57,46.56s-46.57-20.89-46.57-46.56,20.89-46.57,46.57-46.57,46.57,20.89,46.57,46.57Zm-89.17,0c0,23.49,19.11,42.6,42.6,42.6s42.61-19.12,42.61-42.6-19.11-42.6-42.61-42.6-42.6,19.11-42.6,42.6Z"/>
            <path class="cls-2" d="M21.81,522.43c0,15.3-12.44,27.74-27.74,27.74s-27.74-12.44-27.74-27.74,12.45-27.74,27.74-27.74,27.74,12.44,27.74,27.74Zm-51.52,0c0,13.11,10.67,23.78,23.78,23.78s23.78-10.67,23.78-23.78-10.67-23.78-23.78-23.78-23.78,10.66-23.78,23.78Z"/>
          </g>
        </g>
      </g>
      <g>
        <rect class="cls-8" x="445.85" y="145.95" width="150.6" height="150.59"/>
        <g class="cls-3">
          <g>
            <path class="cls-7" d="M521.15,223.23c-42.61,0-77.28-34.67-77.28-77.28s34.67-77.28,77.28-77.28,77.28,34.67,77.28,77.28-34.67,77.28-77.28,77.28Zm0-150.59c-40.43,0-73.32,32.88-73.32,73.31s32.89,73.32,73.32,73.32,73.32-32.89,73.32-73.32-32.89-73.31-73.32-73.31Z"/>
            <path class="cls-7" d="M521.15,192.52c-25.67,0-46.57-20.9-46.57-46.57s20.9-46.57,46.57-46.57,46.57,20.9,46.57,46.57-20.9,46.57-46.57,46.57Zm0-89.17c-23.49,0-42.61,19.11-42.61,42.6s19.11,42.6,42.61,42.6,42.6-19.12,42.6-42.6-19.11-42.6-42.6-42.6Z"/>
            <path class="cls-7" d="M521.15,173.7c-15.3,0-27.75-12.45-27.75-27.74s12.45-27.74,27.75-27.74,27.74,12.45,27.74,27.74-12.44,27.74-27.74,27.74Zm0-51.53c-13.11,0-23.78,10.67-23.78,23.78s10.67,23.78,23.78,23.78,23.77-10.67,23.77-23.78-10.67-23.78-23.77-23.78Z"/>
          </g>
        </g>
      </g>
      <g>
        <rect class="cls-8" x="144.66" y="-4.65" width="150.6" height="150.59"/>
        <path class="cls-7" d="M183.34,70.65c0,20.22,16.39,36.62,36.62,36.62s36.62-16.39,36.62-36.62-16.4-36.62-36.62-36.62-36.62,16.39-36.62,36.62Zm68.07,0c0,17.37-14.09,31.46-31.46,31.46s-31.46-14.08-31.46-31.46,14.08-31.46,31.46-31.46,31.46,14.09,31.46,31.46Z"/>
      </g>
      <g>
        <rect class="cls-13" x="-5.94" y="296.54" width="150.59" height="150.59"/>
        <g class="cls-12">
          <g>
            <polygon class="cls-7" points="119.56 497.33 81.91 534.99 -93.79 359.29 -56.13 321.64 119.56 497.33"/>
            <rect class="cls-8" x="23.92" y="266.43" width="53.24" height="248.46" transform="translate(-261.43 150.15) rotate(-45)"/>
            <rect class="cls-7" x="61.57" y="228.79" width="53.24" height="248.46" transform="translate(-223.79 165.75) rotate(-45)"/>
            <rect class="cls-8" x="99.21" y="191.14" width="53.25" height="248.46" transform="translate(-186.15 181.35) rotate(-45)"/>
          </g>
        </g>
      </g>
      <g>
        <rect class="cls-16" x="596.44" y="-4.64" width="150.59" height="150.6"/>
        <g class="cls-6">
          <g>
            <polygon class="cls-7" points="546.25 120.85 508.59 83.2 684.29 -92.49 721.94 -54.84 546.25 120.85"/>
            <polygon class="cls-8" points="583.9 158.5 546.25 120.85 721.94 -54.84 759.58 -17.19 583.9 158.5"/>
            <polygon class="cls-7" points="621.54 196.14 583.9 158.5 759.58 -17.19 797.23 20.45 621.54 196.14"/>
            <rect class="cls-8" x="603.98" y="100.5" width="248.46" height="53.26" transform="translate(123.4 552.16) rotate(-45)"/>
          </g>
        </g>
      </g>
      <g>
        <rect class="cls-8" x="144.66" y="296.54" width="150.6" height="150.59"/>
        <g>
          <g>
            <path class="cls-2" d="M169.76,396.94c13.86,0,25.1,11.24,25.1,25.1s-11.24,25.09-25.1,25.09-25.1-11.23-25.1-25.09,11.23-25.1,25.1-25.1Z"/>
            <path class="cls-7" d="M169.76,346.74c13.86,0,25.1,11.23,25.1,25.09s-11.24,25.1-25.1,25.1-25.1-11.24-25.1-25.1,11.23-25.09,25.1-25.09Z"/>
            <path class="cls-2" d="M169.76,296.54c13.86,0,25.1,11.24,25.1,25.1s-11.24,25.1-25.1,25.1-25.1-11.24-25.1-25.1,11.23-25.1,25.1-25.1Z"/>
          </g>
          <g>
            <path class="cls-7" d="M219.96,396.94c13.86,0,25.1,11.24,25.1,25.1s-11.24,25.09-25.1,25.09-25.1-11.23-25.1-25.09,11.24-25.1,25.1-25.1Z"/>
            <path class="cls-2" d="M219.96,346.74c13.86,0,25.1,11.23,25.1,25.09s-11.24,25.1-25.1,25.1-25.1-11.24-25.1-25.1,11.24-25.09,25.1-25.09Z"/>
            <path class="cls-7" d="M219.96,296.54c13.86,0,25.1,11.24,25.1,25.1s-11.24,25.1-25.1,25.1-25.1-11.24-25.1-25.1,11.24-25.1,25.1-25.1Z"/>
          </g>
          <g>
            <path class="cls-2" d="M270.15,396.94c13.86,0,25.1,11.24,25.1,25.1s-11.24,25.09-25.1,25.09-25.1-11.23-25.1-25.09,11.24-25.1,25.1-25.1Z"/>
            <path class="cls-7" d="M270.15,346.74c13.86,0,25.1,11.23,25.1,25.09s-11.24,25.1-25.1,25.1-25.1-11.24-25.1-25.1,11.24-25.09,25.1-25.09Z"/>
            <path class="cls-2" d="M270.15,296.54c13.86,0,25.1,11.24,25.1,25.1s-11.24,25.1-25.1,25.1-25.1-11.24-25.1-25.1,11.24-25.1,25.1-25.1Z"/>
          </g>
        </g>
      </g>
      <g>
        <rect class="cls-8" x="596.44" y="145.95" width="150.59" height="150.59"/>
        <g>
          <g>
            <path class="cls-2" d="M621.54,246.35c13.87,0,25.1,11.24,25.1,25.1s-11.23,25.09-25.1,25.09-25.09-11.24-25.09-25.09,11.23-25.1,25.09-25.1Z"/>
            <path class="cls-7" d="M621.54,196.15c13.87,0,25.1,11.24,25.1,25.1s-11.23,25.1-25.1,25.1-25.09-11.24-25.09-25.1,11.23-25.1,25.09-25.1Z"/>
            <path class="cls-2" d="M621.54,145.95c13.87,0,25.1,11.24,25.1,25.09s-11.23,25.1-25.1,25.1-25.09-11.24-25.09-25.1,11.23-25.09,25.09-25.09Z"/>
          </g>
          <g>
            <path class="cls-7" d="M671.75,246.35c13.86,0,25.09,11.24,25.09,25.1s-11.23,25.09-25.09,25.09-25.11-11.24-25.11-25.09,11.23-25.1,25.11-25.1Z"/>
            <path class="cls-2" d="M671.75,196.15c13.86,0,25.09,11.24,25.09,25.1s-11.23,25.1-25.09,25.1-25.11-11.24-25.11-25.1,11.23-25.1,25.11-25.1Z"/>
            <path class="cls-7" d="M671.75,145.95c13.86,0,25.09,11.24,25.09,25.09s-11.23,25.1-25.09,25.1-25.11-11.24-25.11-25.1,11.23-25.09,25.11-25.09Z"/>
          </g>
          <g>
            <path class="cls-2" d="M721.94,246.35c13.86,0,25.1,11.24,25.1,25.1s-11.24,25.09-25.1,25.09-25.1-11.24-25.1-25.09,11.24-25.1,25.1-25.1Z"/>
            <circle class="cls-7" cx="721.94" cy="221.25" r="25.1" transform="translate(-2.19 7.29) rotate(-.58)"/>
            <path class="cls-2" d="M721.94,145.95c13.86,0,25.1,11.24,25.1,25.09s-11.24,25.1-25.1,25.1-25.1-11.24-25.1-25.1,11.24-25.09,25.1-25.09Z"/>
          </g>
        </g>
      </g>
      <g>
        <rect class="cls-8" x="144.66" y="447.14" width="150.6" height="150.6"/>
        <path class="cls-7" d="M219.96,447.14c41.59,0,75.3,33.71,75.3,75.3s-33.71,75.3-75.3,75.3-75.3-33.71-75.3-75.3,33.72-75.3,75.3-75.3Z"/>
        <path class="cls-2" d="M219.96,472.41c13.96,0,25.27,11.31,25.27,25.27s-11.32,25.27-25.27,25.27-25.27-11.31-25.27-25.27,11.32-25.27,25.27-25.27Z"/>
      </g>
      <g>
        <rect class="cls-2" x="445.85" y="-4.65" width="150.6" height="150.59"/>
        <path class="cls-8" d="M596.44,70.65c0,41.58-33.71,75.29-75.3,75.29s-75.3-33.71-75.3-75.29S479.56-4.65,521.15-4.65s75.3,33.71,75.3,75.3Z"/>
        <path class="cls-7" d="M571.17,70.65c0,13.96-11.31,25.27-25.27,25.27s-25.28-11.31-25.28-25.27,11.32-25.27,25.28-25.27,25.27,11.31,25.27,25.27Z"/>
      </g>
      <g>
        <rect class="cls-8" x="295.26" y="296.54" width="150.59" height="150.59"/>
        <g>
          <path class="cls-7" d="M298.35,371.84c0-39.81,32.39-72.2,72.21-72.2s72.2,32.39,72.2,72.2-32.39,72.2-72.2,72.2-72.21-32.39-72.21-72.2m-3.09,0c0,41.58,33.71,75.3,75.3,75.3s75.29-33.71,75.29-75.3-33.71-75.3-75.29-75.3-75.3,33.71-75.3,75.3h0Z"/>
          <path class="cls-7" d="M317.17,371.84c0-29.43,23.94-53.38,53.38-53.38s53.38,23.94,53.38,53.38-23.95,53.38-53.38,53.38-53.38-23.95-53.38-53.38m-3.09,0c0,31.19,25.27,56.48,56.47,56.48s56.47-25.29,56.47-56.48-25.29-56.47-56.47-56.47-56.47,25.28-56.47,56.47h0Z"/>
          <path class="cls-7" d="M333.41,371.84c0-20.48,16.66-37.15,37.15-37.15s37.14,16.66,37.14,37.15-16.66,37.14-37.14,37.14-37.15-16.66-37.15-37.14m-3.09,0c0,22.22,18.01,40.23,40.24,40.23s40.23-18.01,40.23-40.23-18.01-40.24-40.23-40.24-40.24,18.01-40.24,40.24h0Z"/>
          <path class="cls-7" d="M349.82,371.84c0-11.43,9.3-20.73,20.73-20.73s20.72,9.3,20.72,20.73-9.3,20.73-20.72,20.73-20.73-9.3-20.73-20.73m-3.1,0c0,13.16,10.67,23.83,23.83,23.83s23.82-10.67,23.82-23.83-10.66-23.83-23.82-23.83-23.83,10.67-23.83,23.83h0Z"/>
          <path class="cls-7" d="M362.92,371.84c0-4.2,3.42-7.63,7.63-7.63s7.62,3.42,7.62,7.63-3.42,7.63-7.62,7.63-7.63-3.42-7.63-7.63m-3.1,0c0,5.92,4.81,10.72,10.73,10.72s10.72-4.8,10.72-10.72-4.81-10.72-10.72-10.72-10.73,4.8-10.73,10.72h0Z"/>
        </g>
      </g>
      <g>
        <rect class="cls-8" x="144.66" y="145.95" width="150.6" height="150.6"/>
        <rect class="cls-2" x="166.71" y="168" width="106.49" height="106.5" transform="translate(-92.02 220.34) rotate(-45)"/>
        <polygon class="cls-7" points="144.66 221.25 295.26 221.25 219.96 145.94 144.66 221.25"/>
      </g>
      <g>
        <rect class="cls-8" x="747.04" y="-4.64" width="150.6" height="150.6"/>
        <polygon class="cls-2" points="822.34 -4.65 897.64 70.65 822.34 145.95 747.03 70.66 822.34 -4.65"/>
        <polygon class="cls-7" points="822.34 145.95 822.34 -4.65 747.03 70.66 822.34 145.95"/>
      </g>
      <g>
        <rect class="cls-9" x="295.26" y="447.14" width="150.59" height="150.6"/>
        <g>
          <polygon class="cls-7" points="295.26 597.73 370.55 597.73 332.9 560.08 295.26 597.73"/>
          <polygon class="cls-2" points="370.55 522.43 295.26 522.43 332.9 560.08 370.55 522.43"/>
          <polygon class="cls-8" points="295.26 522.44 295.26 597.73 332.9 560.09 295.26 522.44"/>
          <polygon class="cls-8" points="370.55 597.73 370.55 522.44 332.9 560.09 370.55 597.73"/>
        </g>
        <g>
          <polygon class="cls-7" points="295.26 447.14 295.26 522.43 332.9 484.78 295.26 447.14"/>
          <polygon class="cls-2" points="370.55 522.43 370.55 447.14 332.9 484.78 370.55 522.43"/>
          <polygon class="cls-8" points="370.54 447.14 295.26 447.14 332.9 484.78 370.54 447.14"/>
          <polygon class="cls-8" points="295.26 522.43 370.54 522.43 332.9 484.78 295.26 522.43"/>
        </g>
        <g>
          <polygon class="cls-7" points="445.85 597.73 445.85 522.43 408.2 560.08 445.85 597.73"/>
          <polygon class="cls-2" points="370.55 522.43 370.55 597.73 408.2 560.08 370.55 522.43"/>
          <polygon class="cls-8" points="370.55 597.73 445.85 597.73 408.2 560.08 370.55 597.73"/>
          <polygon class="cls-8" points="445.85 522.43 370.55 522.43 408.2 560.08 445.85 522.43"/>
        </g>
        <g>
          <polygon class="cls-2" points="370.55 522.43 445.85 522.43 408.2 484.78 370.55 522.43"/>
          <polygon class="cls-7" points="445.84 447.14 370.55 447.14 408.2 484.78 445.84 447.14"/>
          <polygon class="cls-8" points="370.55 447.14 370.55 522.43 408.2 484.79 370.55 447.14"/>
          <polygon class="cls-8" points="445.85 522.43 445.85 447.14 408.2 484.79 445.85 522.43"/>
        </g>
      </g>
      <g>
        <rect class="cls-8" x="295.26" y="-4.65" width="150.59" height="150.59"/>
        <g class="cls-14">
          <g>
            <polygon class="cls-2" points="403.34 202.15 401.01 204.49 237.4 40.87 239.73 38.54 403.34 202.15"/>
            <rect class="cls-2" x="331.26" y="-6.72" width="3.31" height="231.39" transform="translate(20.56 267.52) rotate(-45.04)"/>
            <rect class="cls-2" x="306.07" y="18.47" width="3.3" height="231.39" transform="translate(-4.65 257.11) rotate(-45.04)"/>
            <polygon class="cls-2" points="428.44 177.06 426.1 179.4 262.48 15.78 264.81 13.44 428.44 177.06"/>
            <polygon class="cls-2" points="440.98 164.52 438.65 166.86 275.03 3.24 277.36 .9 440.98 164.52"/>
            <rect class="cls-2" x="368.89" y="-44.36" width="3.31" height="231.39" transform="translate(58.09 282.91) rotate(-45)"/>
            <rect class="cls-2" x="381.43" y="-56.91" width="3.3" height="231.4" transform="translate(70.78 288.3) rotate(-45.04)"/>
            <rect class="cls-2" x="393.97" y="-69.45" width="3.3" height="231.4" transform="translate(82.83 292.87) rotate(-44.92)"/>
            <polygon class="cls-2" points="491.15 114.35 488.82 116.69 325.19 -46.94 327.53 -49.27 491.15 114.35"/>
            <rect class="cls-2" x="419.07" y="-94.54" width="3.3" height="231.4" transform="translate(108.47 303.91) rotate(-45.04)"/>
            <polygon class="cls-2" points="516.05 89.45 513.72 91.78 350.09 -71.84 352.43 -74.18 516.05 89.45"/>
          </g>
        </g>
      </g>
      <g>
        <rect class="cls-8" x="-5.94" y="145.95" width="150.59" height="150.6"/>
        <path class="cls-2" d="M10.57,144.57m-16.5,1.64v44.42c0,45.38,33.88,82.51,75.3,82.51s75.3-37.13,75.3-82.51v-44.42h-16.5v44.42c0,36.4-26.37,66.01-58.79,66.01S10.57,227.03,10.57,190.63v-44.42H-5.94Z"/>
        <path class="cls-8" d="M128.16,146.22v44.42c0,36.4-26.37,66.01-58.79,66.01S10.57,227.03,10.57,190.63v-44.42h117.59Z"/>
      </g>
      <g>
        <rect class="cls-8" x="445.6" y="447.14" width="152.8" height="150.6"/>
        <path class="cls-7" d="M444.21,581.23m1.67,16.5h45.07c46.05,0,83.72-33.89,83.72-75.3s-37.67-75.3-83.72-75.3h-45.07v16.51h45.07c36.93,0,66.98,26.37,66.98,58.79s-30.05,58.8-66.98,58.8h-45.07v16.5Z"/>
        <path class="cls-8" d="M445.87,463.64h45.07c36.93,0,66.98,26.37,66.98,58.79s-30.05,58.8-66.98,58.8h-45.07v-117.59Z"/>
      </g>
      <g>
        <rect class="cls-8" x="590.58" y="296.54" width="307.31" height="303.38"/>
        <g class="cls-4">
          <g>
            <path class="cls-7" d="M752.13,448.23c0,85.84-69.84,155.69-155.68,155.69s-155.68-69.84-155.68-155.69,69.83-155.68,155.68-155.68,155.68,69.84,155.68,155.68Zm-303.38,0c0,81.45,66.25,147.7,147.69,147.7s147.69-66.25,147.69-147.7-66.24-147.69-147.69-147.69-147.69,66.25-147.69,147.69Z"/>
            <path class="cls-7" d="M690.26,448.23c0,51.72-42.1,93.82-93.82,93.82s-93.82-42.09-93.82-93.82,42.1-93.81,93.82-93.81,93.82,42.08,93.82,93.81Zm-179.65,0c0,47.33,38.51,85.83,85.83,85.83s85.83-38.5,85.83-85.83-38.51-85.82-85.83-85.82-85.83,38.5-85.83,85.82Z"/>
            <path class="cls-7" d="M652.34,448.23c0,30.82-25.08,55.89-55.89,55.89s-55.89-25.07-55.89-55.89,25.08-55.88,55.89-55.88,55.89,25.06,55.89,55.88Zm-103.8,0c0,26.41,21.49,47.9,47.9,47.9s47.91-21.5,47.91-47.9-21.49-47.89-47.91-47.89-47.9,21.48-47.9,47.89Z"/>
          </g>
        </g>
      </g>
    </g>
  </g>
</svg>